<mxfile host="Electron" modified="2025-04-17T21:04:42.155Z" agent="Mozilla/5.0 (Windows NT 10.0; Win64; x64) AppleWebKit/537.36 (KHTML, like Gecko) draw.io/22.1.2 Chrome/114.0.5735.289 Electron/25.9.4 Safari/537.36" etag="ZzPqLKQJzlQ58UZ5QG3Q" version="22.1.2" type="device">
  <diagram name="PÃ¡gina-1" id="BXjKHU6i_NFkCIAxkXsa">
    <mxGraphModel dx="1288" dy="1812" grid="0" gridSize="10" guides="1" tooltips="1" connect="1" arrows="1" fold="1" page="1" pageScale="1" pageWidth="827" pageHeight="1169" math="0" shadow="0">
      <root>
        <mxCell id="0" />
        <mxCell id="1" parent="0" />
        <mxCell id="q8Lr4Dt9qT4vP38lxmHz-1" value="Utilizador" style="shape=table;startSize=30;container=1;collapsible=1;childLayout=tableLayout;fixedRows=1;rowLines=0;fontStyle=1;align=center;resizeLast=1;html=1;" vertex="1" parent="1">
          <mxGeometry x="39" y="71" width="180" height="240" as="geometry" />
        </mxCell>
        <mxCell id="q8Lr4Dt9qT4vP38lxmHz-2" value="" style="shape=tableRow;horizontal=0;startSize=0;swimlaneHead=0;swimlaneBody=0;fillColor=none;collapsible=0;dropTarget=0;points=[[0,0.5],[1,0.5]];portConstraint=eastwest;top=0;left=0;right=0;bottom=1;" vertex="1" parent="q8Lr4Dt9qT4vP38lxmHz-1">
          <mxGeometry y="30" width="180" height="30" as="geometry" />
        </mxCell>
        <mxCell id="q8Lr4Dt9qT4vP38lxmHz-3" value="PK" style="shape=partialRectangle;connectable=0;fillColor=none;top=0;left=0;bottom=0;right=0;fontStyle=1;overflow=hidden;whiteSpace=wrap;html=1;" vertex="1" parent="q8Lr4Dt9qT4vP38lxmHz-2">
          <mxGeometry width="30" height="30" as="geometry">
            <mxRectangle width="30" height="30" as="alternateBounds" />
          </mxGeometry>
        </mxCell>
        <mxCell id="q8Lr4Dt9qT4vP38lxmHz-4" value="id" style="shape=partialRectangle;connectable=0;fillColor=none;top=0;left=0;bottom=0;right=0;align=left;spacingLeft=6;fontStyle=5;overflow=hidden;whiteSpace=wrap;html=1;" vertex="1" parent="q8Lr4Dt9qT4vP38lxmHz-2">
          <mxGeometry x="30" width="150" height="30" as="geometry">
            <mxRectangle width="150" height="30" as="alternateBounds" />
          </mxGeometry>
        </mxCell>
        <mxCell id="q8Lr4Dt9qT4vP38lxmHz-5" value="" style="shape=tableRow;horizontal=0;startSize=0;swimlaneHead=0;swimlaneBody=0;fillColor=none;collapsible=0;dropTarget=0;points=[[0,0.5],[1,0.5]];portConstraint=eastwest;top=0;left=0;right=0;bottom=0;" vertex="1" parent="q8Lr4Dt9qT4vP38lxmHz-1">
          <mxGeometry y="60" width="180" height="30" as="geometry" />
        </mxCell>
        <mxCell id="q8Lr4Dt9qT4vP38lxmHz-6" value="" style="shape=partialRectangle;connectable=0;fillColor=none;top=0;left=0;bottom=0;right=0;editable=1;overflow=hidden;whiteSpace=wrap;html=1;" vertex="1" parent="q8Lr4Dt9qT4vP38lxmHz-5">
          <mxGeometry width="30" height="30" as="geometry">
            <mxRectangle width="30" height="30" as="alternateBounds" />
          </mxGeometry>
        </mxCell>
        <mxCell id="q8Lr4Dt9qT4vP38lxmHz-7" value="nome" style="shape=partialRectangle;connectable=0;fillColor=none;top=0;left=0;bottom=0;right=0;align=left;spacingLeft=6;overflow=hidden;whiteSpace=wrap;html=1;" vertex="1" parent="q8Lr4Dt9qT4vP38lxmHz-5">
          <mxGeometry x="30" width="150" height="30" as="geometry">
            <mxRectangle width="150" height="30" as="alternateBounds" />
          </mxGeometry>
        </mxCell>
        <mxCell id="q8Lr4Dt9qT4vP38lxmHz-8" value="" style="shape=tableRow;horizontal=0;startSize=0;swimlaneHead=0;swimlaneBody=0;fillColor=none;collapsible=0;dropTarget=0;points=[[0,0.5],[1,0.5]];portConstraint=eastwest;top=0;left=0;right=0;bottom=0;" vertex="1" parent="q8Lr4Dt9qT4vP38lxmHz-1">
          <mxGeometry y="90" width="180" height="30" as="geometry" />
        </mxCell>
        <mxCell id="q8Lr4Dt9qT4vP38lxmHz-9" value="" style="shape=partialRectangle;connectable=0;fillColor=none;top=0;left=0;bottom=0;right=0;editable=1;overflow=hidden;whiteSpace=wrap;html=1;" vertex="1" parent="q8Lr4Dt9qT4vP38lxmHz-8">
          <mxGeometry width="30" height="30" as="geometry">
            <mxRectangle width="30" height="30" as="alternateBounds" />
          </mxGeometry>
        </mxCell>
        <mxCell id="q8Lr4Dt9qT4vP38lxmHz-10" value="email" style="shape=partialRectangle;connectable=0;fillColor=none;top=0;left=0;bottom=0;right=0;align=left;spacingLeft=6;overflow=hidden;whiteSpace=wrap;html=1;" vertex="1" parent="q8Lr4Dt9qT4vP38lxmHz-8">
          <mxGeometry x="30" width="150" height="30" as="geometry">
            <mxRectangle width="150" height="30" as="alternateBounds" />
          </mxGeometry>
        </mxCell>
        <mxCell id="q8Lr4Dt9qT4vP38lxmHz-11" value="" style="shape=tableRow;horizontal=0;startSize=0;swimlaneHead=0;swimlaneBody=0;fillColor=none;collapsible=0;dropTarget=0;points=[[0,0.5],[1,0.5]];portConstraint=eastwest;top=0;left=0;right=0;bottom=0;" vertex="1" parent="q8Lr4Dt9qT4vP38lxmHz-1">
          <mxGeometry y="120" width="180" height="30" as="geometry" />
        </mxCell>
        <mxCell id="q8Lr4Dt9qT4vP38lxmHz-12" value="" style="shape=partialRectangle;connectable=0;fillColor=none;top=0;left=0;bottom=0;right=0;editable=1;overflow=hidden;whiteSpace=wrap;html=1;" vertex="1" parent="q8Lr4Dt9qT4vP38lxmHz-11">
          <mxGeometry width="30" height="30" as="geometry">
            <mxRectangle width="30" height="30" as="alternateBounds" />
          </mxGeometry>
        </mxCell>
        <mxCell id="q8Lr4Dt9qT4vP38lxmHz-13" value="password" style="shape=partialRectangle;connectable=0;fillColor=none;top=0;left=0;bottom=0;right=0;align=left;spacingLeft=6;overflow=hidden;whiteSpace=wrap;html=1;" vertex="1" parent="q8Lr4Dt9qT4vP38lxmHz-11">
          <mxGeometry x="30" width="150" height="30" as="geometry">
            <mxRectangle width="150" height="30" as="alternateBounds" />
          </mxGeometry>
        </mxCell>
        <mxCell id="q8Lr4Dt9qT4vP38lxmHz-14" value="" style="shape=tableRow;horizontal=0;startSize=0;swimlaneHead=0;swimlaneBody=0;fillColor=none;collapsible=0;dropTarget=0;points=[[0,0.5],[1,0.5]];portConstraint=eastwest;top=0;left=0;right=0;bottom=0;" vertex="1" parent="q8Lr4Dt9qT4vP38lxmHz-1">
          <mxGeometry y="150" width="180" height="30" as="geometry" />
        </mxCell>
        <mxCell id="q8Lr4Dt9qT4vP38lxmHz-15" value="" style="shape=partialRectangle;connectable=0;fillColor=none;top=0;left=0;bottom=0;right=0;editable=1;overflow=hidden;whiteSpace=wrap;html=1;" vertex="1" parent="q8Lr4Dt9qT4vP38lxmHz-14">
          <mxGeometry width="30" height="30" as="geometry">
            <mxRectangle width="30" height="30" as="alternateBounds" />
          </mxGeometry>
        </mxCell>
        <mxCell id="q8Lr4Dt9qT4vP38lxmHz-16" value="foto_perfil" style="shape=partialRectangle;connectable=0;fillColor=none;top=0;left=0;bottom=0;right=0;align=left;spacingLeft=6;overflow=hidden;whiteSpace=wrap;html=1;" vertex="1" parent="q8Lr4Dt9qT4vP38lxmHz-14">
          <mxGeometry x="30" width="150" height="30" as="geometry">
            <mxRectangle width="150" height="30" as="alternateBounds" />
          </mxGeometry>
        </mxCell>
        <mxCell id="q8Lr4Dt9qT4vP38lxmHz-17" value="" style="shape=tableRow;horizontal=0;startSize=0;swimlaneHead=0;swimlaneBody=0;fillColor=none;collapsible=0;dropTarget=0;points=[[0,0.5],[1,0.5]];portConstraint=eastwest;top=0;left=0;right=0;bottom=0;" vertex="1" parent="q8Lr4Dt9qT4vP38lxmHz-1">
          <mxGeometry y="180" width="180" height="30" as="geometry" />
        </mxCell>
        <mxCell id="q8Lr4Dt9qT4vP38lxmHz-18" value="" style="shape=partialRectangle;connectable=0;fillColor=none;top=0;left=0;bottom=0;right=0;editable=1;overflow=hidden;whiteSpace=wrap;html=1;" vertex="1" parent="q8Lr4Dt9qT4vP38lxmHz-17">
          <mxGeometry width="30" height="30" as="geometry">
            <mxRectangle width="30" height="30" as="alternateBounds" />
          </mxGeometry>
        </mxCell>
        <mxCell id="q8Lr4Dt9qT4vP38lxmHz-19" value="tipo_utilizador" style="shape=partialRectangle;connectable=0;fillColor=none;top=0;left=0;bottom=0;right=0;align=left;spacingLeft=6;overflow=hidden;whiteSpace=wrap;html=1;" vertex="1" parent="q8Lr4Dt9qT4vP38lxmHz-17">
          <mxGeometry x="30" width="150" height="30" as="geometry">
            <mxRectangle width="150" height="30" as="alternateBounds" />
          </mxGeometry>
        </mxCell>
        <mxCell id="q8Lr4Dt9qT4vP38lxmHz-20" value="" style="shape=tableRow;horizontal=0;startSize=0;swimlaneHead=0;swimlaneBody=0;fillColor=none;collapsible=0;dropTarget=0;points=[[0,0.5],[1,0.5]];portConstraint=eastwest;top=0;left=0;right=0;bottom=0;" vertex="1" parent="q8Lr4Dt9qT4vP38lxmHz-1">
          <mxGeometry y="210" width="180" height="30" as="geometry" />
        </mxCell>
        <mxCell id="q8Lr4Dt9qT4vP38lxmHz-21" value="" style="shape=partialRectangle;connectable=0;fillColor=none;top=0;left=0;bottom=0;right=0;editable=1;overflow=hidden;whiteSpace=wrap;html=1;" vertex="1" parent="q8Lr4Dt9qT4vP38lxmHz-20">
          <mxGeometry width="30" height="30" as="geometry">
            <mxRectangle width="30" height="30" as="alternateBounds" />
          </mxGeometry>
        </mxCell>
        <mxCell id="q8Lr4Dt9qT4vP38lxmHz-22" value="data_criacao" style="shape=partialRectangle;connectable=0;fillColor=none;top=0;left=0;bottom=0;right=0;align=left;spacingLeft=6;overflow=hidden;whiteSpace=wrap;html=1;" vertex="1" parent="q8Lr4Dt9qT4vP38lxmHz-20">
          <mxGeometry x="30" width="150" height="30" as="geometry">
            <mxRectangle width="150" height="30" as="alternateBounds" />
          </mxGeometry>
        </mxCell>
        <mxCell id="q8Lr4Dt9qT4vP38lxmHz-23" value="Material" style="shape=table;startSize=30;container=1;collapsible=1;childLayout=tableLayout;fixedRows=1;rowLines=0;fontStyle=1;align=center;resizeLast=1;html=1;" vertex="1" parent="1">
          <mxGeometry x="308" y="71" width="180" height="236" as="geometry" />
        </mxCell>
        <mxCell id="q8Lr4Dt9qT4vP38lxmHz-24" value="" style="shape=tableRow;horizontal=0;startSize=0;swimlaneHead=0;swimlaneBody=0;fillColor=none;collapsible=0;dropTarget=0;points=[[0,0.5],[1,0.5]];portConstraint=eastwest;top=0;left=0;right=0;bottom=1;" vertex="1" parent="q8Lr4Dt9qT4vP38lxmHz-23">
          <mxGeometry y="30" width="180" height="30" as="geometry" />
        </mxCell>
        <mxCell id="q8Lr4Dt9qT4vP38lxmHz-25" value="PK" style="shape=partialRectangle;connectable=0;fillColor=none;top=0;left=0;bottom=0;right=0;fontStyle=1;overflow=hidden;whiteSpace=wrap;html=1;" vertex="1" parent="q8Lr4Dt9qT4vP38lxmHz-24">
          <mxGeometry width="30" height="30" as="geometry">
            <mxRectangle width="30" height="30" as="alternateBounds" />
          </mxGeometry>
        </mxCell>
        <mxCell id="q8Lr4Dt9qT4vP38lxmHz-26" value="id" style="shape=partialRectangle;connectable=0;fillColor=none;top=0;left=0;bottom=0;right=0;align=left;spacingLeft=6;fontStyle=5;overflow=hidden;whiteSpace=wrap;html=1;" vertex="1" parent="q8Lr4Dt9qT4vP38lxmHz-24">
          <mxGeometry x="30" width="150" height="30" as="geometry">
            <mxRectangle width="150" height="30" as="alternateBounds" />
          </mxGeometry>
        </mxCell>
        <mxCell id="q8Lr4Dt9qT4vP38lxmHz-27" value="" style="shape=tableRow;horizontal=0;startSize=0;swimlaneHead=0;swimlaneBody=0;fillColor=none;collapsible=0;dropTarget=0;points=[[0,0.5],[1,0.5]];portConstraint=eastwest;top=0;left=0;right=0;bottom=0;" vertex="1" parent="q8Lr4Dt9qT4vP38lxmHz-23">
          <mxGeometry y="60" width="180" height="30" as="geometry" />
        </mxCell>
        <mxCell id="q8Lr4Dt9qT4vP38lxmHz-28" value="" style="shape=partialRectangle;connectable=0;fillColor=none;top=0;left=0;bottom=0;right=0;editable=1;overflow=hidden;whiteSpace=wrap;html=1;" vertex="1" parent="q8Lr4Dt9qT4vP38lxmHz-27">
          <mxGeometry width="30" height="30" as="geometry">
            <mxRectangle width="30" height="30" as="alternateBounds" />
          </mxGeometry>
        </mxCell>
        <mxCell id="q8Lr4Dt9qT4vP38lxmHz-29" value="titulo" style="shape=partialRectangle;connectable=0;fillColor=none;top=0;left=0;bottom=0;right=0;align=left;spacingLeft=6;overflow=hidden;whiteSpace=wrap;html=1;" vertex="1" parent="q8Lr4Dt9qT4vP38lxmHz-27">
          <mxGeometry x="30" width="150" height="30" as="geometry">
            <mxRectangle width="150" height="30" as="alternateBounds" />
          </mxGeometry>
        </mxCell>
        <mxCell id="q8Lr4Dt9qT4vP38lxmHz-30" value="" style="shape=tableRow;horizontal=0;startSize=0;swimlaneHead=0;swimlaneBody=0;fillColor=none;collapsible=0;dropTarget=0;points=[[0,0.5],[1,0.5]];portConstraint=eastwest;top=0;left=0;right=0;bottom=0;" vertex="1" parent="q8Lr4Dt9qT4vP38lxmHz-23">
          <mxGeometry y="90" width="180" height="26" as="geometry" />
        </mxCell>
        <mxCell id="q8Lr4Dt9qT4vP38lxmHz-31" value="" style="shape=partialRectangle;connectable=0;fillColor=none;top=0;left=0;bottom=0;right=0;editable=1;overflow=hidden;whiteSpace=wrap;html=1;" vertex="1" parent="q8Lr4Dt9qT4vP38lxmHz-30">
          <mxGeometry width="30" height="26" as="geometry">
            <mxRectangle width="30" height="26" as="alternateBounds" />
          </mxGeometry>
        </mxCell>
        <mxCell id="q8Lr4Dt9qT4vP38lxmHz-32" value="descricao" style="shape=partialRectangle;connectable=0;fillColor=none;top=0;left=0;bottom=0;right=0;align=left;spacingLeft=6;overflow=hidden;whiteSpace=wrap;html=1;" vertex="1" parent="q8Lr4Dt9qT4vP38lxmHz-30">
          <mxGeometry x="30" width="150" height="26" as="geometry">
            <mxRectangle width="150" height="26" as="alternateBounds" />
          </mxGeometry>
        </mxCell>
        <mxCell id="q8Lr4Dt9qT4vP38lxmHz-33" value="" style="shape=tableRow;horizontal=0;startSize=0;swimlaneHead=0;swimlaneBody=0;fillColor=none;collapsible=0;dropTarget=0;points=[[0,0.5],[1,0.5]];portConstraint=eastwest;top=0;left=0;right=0;bottom=0;" vertex="1" parent="q8Lr4Dt9qT4vP38lxmHz-23">
          <mxGeometry y="116" width="180" height="30" as="geometry" />
        </mxCell>
        <mxCell id="q8Lr4Dt9qT4vP38lxmHz-34" value="" style="shape=partialRectangle;connectable=0;fillColor=none;top=0;left=0;bottom=0;right=0;editable=1;overflow=hidden;whiteSpace=wrap;html=1;" vertex="1" parent="q8Lr4Dt9qT4vP38lxmHz-33">
          <mxGeometry width="30" height="30" as="geometry">
            <mxRectangle width="30" height="30" as="alternateBounds" />
          </mxGeometry>
        </mxCell>
        <mxCell id="q8Lr4Dt9qT4vP38lxmHz-35" value="ficheiro_url" style="shape=partialRectangle;connectable=0;fillColor=none;top=0;left=0;bottom=0;right=0;align=left;spacingLeft=6;overflow=hidden;whiteSpace=wrap;html=1;" vertex="1" parent="q8Lr4Dt9qT4vP38lxmHz-33">
          <mxGeometry x="30" width="150" height="30" as="geometry">
            <mxRectangle width="150" height="30" as="alternateBounds" />
          </mxGeometry>
        </mxCell>
        <mxCell id="q8Lr4Dt9qT4vP38lxmHz-36" value="" style="shape=tableRow;horizontal=0;startSize=0;swimlaneHead=0;swimlaneBody=0;fillColor=none;collapsible=0;dropTarget=0;points=[[0,0.5],[1,0.5]];portConstraint=eastwest;top=0;left=0;right=0;bottom=0;" vertex="1" parent="q8Lr4Dt9qT4vP38lxmHz-23">
          <mxGeometry y="146" width="180" height="30" as="geometry" />
        </mxCell>
        <mxCell id="q8Lr4Dt9qT4vP38lxmHz-37" value="" style="shape=partialRectangle;connectable=0;fillColor=none;top=0;left=0;bottom=0;right=0;editable=1;overflow=hidden;whiteSpace=wrap;html=1;" vertex="1" parent="q8Lr4Dt9qT4vP38lxmHz-36">
          <mxGeometry width="30" height="30" as="geometry">
            <mxRectangle width="30" height="30" as="alternateBounds" />
          </mxGeometry>
        </mxCell>
        <mxCell id="q8Lr4Dt9qT4vP38lxmHz-38" value="visibilidade" style="shape=partialRectangle;connectable=0;fillColor=none;top=0;left=0;bottom=0;right=0;align=left;spacingLeft=6;overflow=hidden;whiteSpace=wrap;html=1;" vertex="1" parent="q8Lr4Dt9qT4vP38lxmHz-36">
          <mxGeometry x="30" width="150" height="30" as="geometry">
            <mxRectangle width="150" height="30" as="alternateBounds" />
          </mxGeometry>
        </mxCell>
        <mxCell id="q8Lr4Dt9qT4vP38lxmHz-39" value="" style="shape=tableRow;horizontal=0;startSize=0;swimlaneHead=0;swimlaneBody=0;fillColor=none;collapsible=0;dropTarget=0;points=[[0,0.5],[1,0.5]];portConstraint=eastwest;top=0;left=0;right=0;bottom=0;" vertex="1" parent="q8Lr4Dt9qT4vP38lxmHz-23">
          <mxGeometry y="176" width="180" height="30" as="geometry" />
        </mxCell>
        <mxCell id="q8Lr4Dt9qT4vP38lxmHz-40" value="FK" style="shape=partialRectangle;connectable=0;fillColor=none;top=0;left=0;bottom=0;right=0;editable=1;overflow=hidden;whiteSpace=wrap;html=1;" vertex="1" parent="q8Lr4Dt9qT4vP38lxmHz-39">
          <mxGeometry width="30" height="30" as="geometry">
            <mxRectangle width="30" height="30" as="alternateBounds" />
          </mxGeometry>
        </mxCell>
        <mxCell id="q8Lr4Dt9qT4vP38lxmHz-41" value="id_autor" style="shape=partialRectangle;connectable=0;fillColor=none;top=0;left=0;bottom=0;right=0;align=left;spacingLeft=6;overflow=hidden;whiteSpace=wrap;html=1;" vertex="1" parent="q8Lr4Dt9qT4vP38lxmHz-39">
          <mxGeometry x="30" width="150" height="30" as="geometry">
            <mxRectangle width="150" height="30" as="alternateBounds" />
          </mxGeometry>
        </mxCell>
        <mxCell id="q8Lr4Dt9qT4vP38lxmHz-45" value="" style="shape=tableRow;horizontal=0;startSize=0;swimlaneHead=0;swimlaneBody=0;fillColor=none;collapsible=0;dropTarget=0;points=[[0,0.5],[1,0.5]];portConstraint=eastwest;top=0;left=0;right=0;bottom=0;" vertex="1" parent="q8Lr4Dt9qT4vP38lxmHz-23">
          <mxGeometry y="206" width="180" height="30" as="geometry" />
        </mxCell>
        <mxCell id="q8Lr4Dt9qT4vP38lxmHz-46" value="" style="shape=partialRectangle;connectable=0;fillColor=none;top=0;left=0;bottom=0;right=0;editable=1;overflow=hidden;whiteSpace=wrap;html=1;" vertex="1" parent="q8Lr4Dt9qT4vP38lxmHz-45">
          <mxGeometry width="30" height="30" as="geometry">
            <mxRectangle width="30" height="30" as="alternateBounds" />
          </mxGeometry>
        </mxCell>
        <mxCell id="q8Lr4Dt9qT4vP38lxmHz-47" value="data_criacao" style="shape=partialRectangle;connectable=0;fillColor=none;top=0;left=0;bottom=0;right=0;align=left;spacingLeft=6;overflow=hidden;whiteSpace=wrap;html=1;" vertex="1" parent="q8Lr4Dt9qT4vP38lxmHz-45">
          <mxGeometry x="30" width="150" height="30" as="geometry">
            <mxRectangle width="150" height="30" as="alternateBounds" />
          </mxGeometry>
        </mxCell>
        <mxCell id="q8Lr4Dt9qT4vP38lxmHz-73" value="Favorito" style="shape=table;startSize=30;container=1;collapsible=1;childLayout=tableLayout;fixedRows=1;rowLines=0;fontStyle=1;align=center;resizeLast=1;html=1;whiteSpace=wrap;" vertex="1" parent="1">
          <mxGeometry x="566" y="71" width="180" height="90" as="geometry" />
        </mxCell>
        <mxCell id="q8Lr4Dt9qT4vP38lxmHz-74" value="" style="shape=tableRow;horizontal=0;startSize=0;swimlaneHead=0;swimlaneBody=0;fillColor=none;collapsible=0;dropTarget=0;points=[[0,0.5],[1,0.5]];portConstraint=eastwest;top=0;left=0;right=0;bottom=0;html=1;" vertex="1" parent="q8Lr4Dt9qT4vP38lxmHz-73">
          <mxGeometry y="30" width="180" height="30" as="geometry" />
        </mxCell>
        <mxCell id="q8Lr4Dt9qT4vP38lxmHz-75" value="PK,FK1" style="shape=partialRectangle;connectable=0;fillColor=none;top=0;left=0;bottom=0;right=0;fontStyle=1;overflow=hidden;html=1;whiteSpace=wrap;" vertex="1" parent="q8Lr4Dt9qT4vP38lxmHz-74">
          <mxGeometry width="62.550048828125" height="30" as="geometry">
            <mxRectangle width="62.550048828125" height="30" as="alternateBounds" />
          </mxGeometry>
        </mxCell>
        <mxCell id="q8Lr4Dt9qT4vP38lxmHz-76" value="id_utilizador" style="shape=partialRectangle;connectable=0;fillColor=none;top=0;left=0;bottom=0;right=0;align=left;spacingLeft=6;fontStyle=5;overflow=hidden;html=1;whiteSpace=wrap;" vertex="1" parent="q8Lr4Dt9qT4vP38lxmHz-74">
          <mxGeometry x="62.550048828125" width="117.449951171875" height="30" as="geometry">
            <mxRectangle width="117.449951171875" height="30" as="alternateBounds" />
          </mxGeometry>
        </mxCell>
        <mxCell id="q8Lr4Dt9qT4vP38lxmHz-77" value="" style="shape=tableRow;horizontal=0;startSize=0;swimlaneHead=0;swimlaneBody=0;fillColor=none;collapsible=0;dropTarget=0;points=[[0,0.5],[1,0.5]];portConstraint=eastwest;top=0;left=0;right=0;bottom=1;html=1;" vertex="1" parent="q8Lr4Dt9qT4vP38lxmHz-73">
          <mxGeometry y="60" width="180" height="30" as="geometry" />
        </mxCell>
        <mxCell id="q8Lr4Dt9qT4vP38lxmHz-78" value="PK,FK2" style="shape=partialRectangle;connectable=0;fillColor=none;top=0;left=0;bottom=0;right=0;fontStyle=1;overflow=hidden;html=1;whiteSpace=wrap;" vertex="1" parent="q8Lr4Dt9qT4vP38lxmHz-77">
          <mxGeometry width="62.550048828125" height="30" as="geometry">
            <mxRectangle width="62.550048828125" height="30" as="alternateBounds" />
          </mxGeometry>
        </mxCell>
        <mxCell id="q8Lr4Dt9qT4vP38lxmHz-79" value="id_material" style="shape=partialRectangle;connectable=0;fillColor=none;top=0;left=0;bottom=0;right=0;align=left;spacingLeft=6;fontStyle=5;overflow=hidden;html=1;whiteSpace=wrap;" vertex="1" parent="q8Lr4Dt9qT4vP38lxmHz-77">
          <mxGeometry x="62.550048828125" width="117.449951171875" height="30" as="geometry">
            <mxRectangle width="117.449951171875" height="30" as="alternateBounds" />
          </mxGeometry>
        </mxCell>
        <mxCell id="q8Lr4Dt9qT4vP38lxmHz-108" value="Avaliacao" style="shape=table;startSize=30;container=1;collapsible=1;childLayout=tableLayout;fixedRows=1;rowLines=0;fontStyle=1;align=center;resizeLast=1;html=1;whiteSpace=wrap;" vertex="1" parent="1">
          <mxGeometry x="44" y="438" width="180" height="180" as="geometry" />
        </mxCell>
        <mxCell id="q8Lr4Dt9qT4vP38lxmHz-109" value="" style="shape=tableRow;horizontal=0;startSize=0;swimlaneHead=0;swimlaneBody=0;fillColor=none;collapsible=0;dropTarget=0;points=[[0,0.5],[1,0.5]];portConstraint=eastwest;top=0;left=0;right=0;bottom=0;html=1;" vertex="1" parent="q8Lr4Dt9qT4vP38lxmHz-108">
          <mxGeometry y="30" width="180" height="30" as="geometry" />
        </mxCell>
        <mxCell id="q8Lr4Dt9qT4vP38lxmHz-110" value="PK,FK1" style="shape=partialRectangle;connectable=0;fillColor=none;top=0;left=0;bottom=0;right=0;fontStyle=1;overflow=hidden;html=1;whiteSpace=wrap;" vertex="1" parent="q8Lr4Dt9qT4vP38lxmHz-109">
          <mxGeometry width="60" height="30" as="geometry">
            <mxRectangle width="60" height="30" as="alternateBounds" />
          </mxGeometry>
        </mxCell>
        <mxCell id="q8Lr4Dt9qT4vP38lxmHz-111" value="id_utilizador" style="shape=partialRectangle;connectable=0;fillColor=none;top=0;left=0;bottom=0;right=0;align=left;spacingLeft=6;fontStyle=5;overflow=hidden;html=1;whiteSpace=wrap;" vertex="1" parent="q8Lr4Dt9qT4vP38lxmHz-109">
          <mxGeometry x="60" width="120" height="30" as="geometry">
            <mxRectangle width="120" height="30" as="alternateBounds" />
          </mxGeometry>
        </mxCell>
        <mxCell id="q8Lr4Dt9qT4vP38lxmHz-112" value="" style="shape=tableRow;horizontal=0;startSize=0;swimlaneHead=0;swimlaneBody=0;fillColor=none;collapsible=0;dropTarget=0;points=[[0,0.5],[1,0.5]];portConstraint=eastwest;top=0;left=0;right=0;bottom=1;html=1;" vertex="1" parent="q8Lr4Dt9qT4vP38lxmHz-108">
          <mxGeometry y="60" width="180" height="30" as="geometry" />
        </mxCell>
        <mxCell id="q8Lr4Dt9qT4vP38lxmHz-113" value="PK,FK2" style="shape=partialRectangle;connectable=0;fillColor=none;top=0;left=0;bottom=0;right=0;fontStyle=1;overflow=hidden;html=1;whiteSpace=wrap;" vertex="1" parent="q8Lr4Dt9qT4vP38lxmHz-112">
          <mxGeometry width="60" height="30" as="geometry">
            <mxRectangle width="60" height="30" as="alternateBounds" />
          </mxGeometry>
        </mxCell>
        <mxCell id="q8Lr4Dt9qT4vP38lxmHz-114" value="id_material" style="shape=partialRectangle;connectable=0;fillColor=none;top=0;left=0;bottom=0;right=0;align=left;spacingLeft=6;fontStyle=5;overflow=hidden;html=1;whiteSpace=wrap;" vertex="1" parent="q8Lr4Dt9qT4vP38lxmHz-112">
          <mxGeometry x="60" width="120" height="30" as="geometry">
            <mxRectangle width="120" height="30" as="alternateBounds" />
          </mxGeometry>
        </mxCell>
        <mxCell id="q8Lr4Dt9qT4vP38lxmHz-115" value="" style="shape=tableRow;horizontal=0;startSize=0;swimlaneHead=0;swimlaneBody=0;fillColor=none;collapsible=0;dropTarget=0;points=[[0,0.5],[1,0.5]];portConstraint=eastwest;top=0;left=0;right=0;bottom=0;html=1;" vertex="1" parent="q8Lr4Dt9qT4vP38lxmHz-108">
          <mxGeometry y="90" width="180" height="30" as="geometry" />
        </mxCell>
        <mxCell id="q8Lr4Dt9qT4vP38lxmHz-116" value="" style="shape=partialRectangle;connectable=0;fillColor=none;top=0;left=0;bottom=0;right=0;editable=1;overflow=hidden;html=1;whiteSpace=wrap;" vertex="1" parent="q8Lr4Dt9qT4vP38lxmHz-115">
          <mxGeometry width="60" height="30" as="geometry">
            <mxRectangle width="60" height="30" as="alternateBounds" />
          </mxGeometry>
        </mxCell>
        <mxCell id="q8Lr4Dt9qT4vP38lxmHz-117" value="nota" style="shape=partialRectangle;connectable=0;fillColor=none;top=0;left=0;bottom=0;right=0;align=left;spacingLeft=6;overflow=hidden;html=1;whiteSpace=wrap;" vertex="1" parent="q8Lr4Dt9qT4vP38lxmHz-115">
          <mxGeometry x="60" width="120" height="30" as="geometry">
            <mxRectangle width="120" height="30" as="alternateBounds" />
          </mxGeometry>
        </mxCell>
        <mxCell id="q8Lr4Dt9qT4vP38lxmHz-118" value="" style="shape=tableRow;horizontal=0;startSize=0;swimlaneHead=0;swimlaneBody=0;fillColor=none;collapsible=0;dropTarget=0;points=[[0,0.5],[1,0.5]];portConstraint=eastwest;top=0;left=0;right=0;bottom=0;html=1;" vertex="1" parent="q8Lr4Dt9qT4vP38lxmHz-108">
          <mxGeometry y="120" width="180" height="30" as="geometry" />
        </mxCell>
        <mxCell id="q8Lr4Dt9qT4vP38lxmHz-119" value="" style="shape=partialRectangle;connectable=0;fillColor=none;top=0;left=0;bottom=0;right=0;editable=1;overflow=hidden;html=1;whiteSpace=wrap;" vertex="1" parent="q8Lr4Dt9qT4vP38lxmHz-118">
          <mxGeometry width="60" height="30" as="geometry">
            <mxRectangle width="60" height="30" as="alternateBounds" />
          </mxGeometry>
        </mxCell>
        <mxCell id="q8Lr4Dt9qT4vP38lxmHz-120" value="feedback" style="shape=partialRectangle;connectable=0;fillColor=none;top=0;left=0;bottom=0;right=0;align=left;spacingLeft=6;overflow=hidden;html=1;whiteSpace=wrap;" vertex="1" parent="q8Lr4Dt9qT4vP38lxmHz-118">
          <mxGeometry x="60" width="120" height="30" as="geometry">
            <mxRectangle width="120" height="30" as="alternateBounds" />
          </mxGeometry>
        </mxCell>
        <mxCell id="q8Lr4Dt9qT4vP38lxmHz-121" value="" style="shape=tableRow;horizontal=0;startSize=0;swimlaneHead=0;swimlaneBody=0;fillColor=none;collapsible=0;dropTarget=0;points=[[0,0.5],[1,0.5]];portConstraint=eastwest;top=0;left=0;right=0;bottom=0;html=1;" vertex="1" parent="q8Lr4Dt9qT4vP38lxmHz-108">
          <mxGeometry y="150" width="180" height="30" as="geometry" />
        </mxCell>
        <mxCell id="q8Lr4Dt9qT4vP38lxmHz-122" value="" style="shape=partialRectangle;connectable=0;fillColor=none;top=0;left=0;bottom=0;right=0;editable=1;overflow=hidden;html=1;whiteSpace=wrap;" vertex="1" parent="q8Lr4Dt9qT4vP38lxmHz-121">
          <mxGeometry width="60" height="30" as="geometry">
            <mxRectangle width="60" height="30" as="alternateBounds" />
          </mxGeometry>
        </mxCell>
        <mxCell id="q8Lr4Dt9qT4vP38lxmHz-123" value="data_criacao" style="shape=partialRectangle;connectable=0;fillColor=none;top=0;left=0;bottom=0;right=0;align=left;spacingLeft=6;overflow=hidden;html=1;whiteSpace=wrap;" vertex="1" parent="q8Lr4Dt9qT4vP38lxmHz-121">
          <mxGeometry x="60" width="120" height="30" as="geometry">
            <mxRectangle width="120" height="30" as="alternateBounds" />
          </mxGeometry>
        </mxCell>
        <mxCell id="q8Lr4Dt9qT4vP38lxmHz-143" value="Denuncia" style="shape=table;startSize=30;container=1;collapsible=1;childLayout=tableLayout;fixedRows=1;rowLines=0;fontStyle=1;align=center;resizeLast=1;html=1;" vertex="1" parent="1">
          <mxGeometry x="313" y="431" width="180" height="210" as="geometry" />
        </mxCell>
        <mxCell id="q8Lr4Dt9qT4vP38lxmHz-144" value="" style="shape=tableRow;horizontal=0;startSize=0;swimlaneHead=0;swimlaneBody=0;fillColor=none;collapsible=0;dropTarget=0;points=[[0,0.5],[1,0.5]];portConstraint=eastwest;top=0;left=0;right=0;bottom=1;" vertex="1" parent="q8Lr4Dt9qT4vP38lxmHz-143">
          <mxGeometry y="30" width="180" height="30" as="geometry" />
        </mxCell>
        <mxCell id="q8Lr4Dt9qT4vP38lxmHz-145" value="PK" style="shape=partialRectangle;connectable=0;fillColor=none;top=0;left=0;bottom=0;right=0;fontStyle=1;overflow=hidden;whiteSpace=wrap;html=1;" vertex="1" parent="q8Lr4Dt9qT4vP38lxmHz-144">
          <mxGeometry width="30" height="30" as="geometry">
            <mxRectangle width="30" height="30" as="alternateBounds" />
          </mxGeometry>
        </mxCell>
        <mxCell id="q8Lr4Dt9qT4vP38lxmHz-146" value="id" style="shape=partialRectangle;connectable=0;fillColor=none;top=0;left=0;bottom=0;right=0;align=left;spacingLeft=6;fontStyle=5;overflow=hidden;whiteSpace=wrap;html=1;" vertex="1" parent="q8Lr4Dt9qT4vP38lxmHz-144">
          <mxGeometry x="30" width="150" height="30" as="geometry">
            <mxRectangle width="150" height="30" as="alternateBounds" />
          </mxGeometry>
        </mxCell>
        <mxCell id="q8Lr4Dt9qT4vP38lxmHz-147" value="" style="shape=tableRow;horizontal=0;startSize=0;swimlaneHead=0;swimlaneBody=0;fillColor=none;collapsible=0;dropTarget=0;points=[[0,0.5],[1,0.5]];portConstraint=eastwest;top=0;left=0;right=0;bottom=0;" vertex="1" parent="q8Lr4Dt9qT4vP38lxmHz-143">
          <mxGeometry y="60" width="180" height="30" as="geometry" />
        </mxCell>
        <mxCell id="q8Lr4Dt9qT4vP38lxmHz-148" value="FK" style="shape=partialRectangle;connectable=0;fillColor=none;top=0;left=0;bottom=0;right=0;editable=1;overflow=hidden;whiteSpace=wrap;html=1;" vertex="1" parent="q8Lr4Dt9qT4vP38lxmHz-147">
          <mxGeometry width="30" height="30" as="geometry">
            <mxRectangle width="30" height="30" as="alternateBounds" />
          </mxGeometry>
        </mxCell>
        <mxCell id="q8Lr4Dt9qT4vP38lxmHz-149" value="id_utilizador" style="shape=partialRectangle;connectable=0;fillColor=none;top=0;left=0;bottom=0;right=0;align=left;spacingLeft=6;overflow=hidden;whiteSpace=wrap;html=1;" vertex="1" parent="q8Lr4Dt9qT4vP38lxmHz-147">
          <mxGeometry x="30" width="150" height="30" as="geometry">
            <mxRectangle width="150" height="30" as="alternateBounds" />
          </mxGeometry>
        </mxCell>
        <mxCell id="q8Lr4Dt9qT4vP38lxmHz-150" value="" style="shape=tableRow;horizontal=0;startSize=0;swimlaneHead=0;swimlaneBody=0;fillColor=none;collapsible=0;dropTarget=0;points=[[0,0.5],[1,0.5]];portConstraint=eastwest;top=0;left=0;right=0;bottom=0;" vertex="1" parent="q8Lr4Dt9qT4vP38lxmHz-143">
          <mxGeometry y="90" width="180" height="30" as="geometry" />
        </mxCell>
        <mxCell id="q8Lr4Dt9qT4vP38lxmHz-151" value="FK" style="shape=partialRectangle;connectable=0;fillColor=none;top=0;left=0;bottom=0;right=0;editable=1;overflow=hidden;whiteSpace=wrap;html=1;" vertex="1" parent="q8Lr4Dt9qT4vP38lxmHz-150">
          <mxGeometry width="30" height="30" as="geometry">
            <mxRectangle width="30" height="30" as="alternateBounds" />
          </mxGeometry>
        </mxCell>
        <mxCell id="q8Lr4Dt9qT4vP38lxmHz-152" value="id_material" style="shape=partialRectangle;connectable=0;fillColor=none;top=0;left=0;bottom=0;right=0;align=left;spacingLeft=6;overflow=hidden;whiteSpace=wrap;html=1;" vertex="1" parent="q8Lr4Dt9qT4vP38lxmHz-150">
          <mxGeometry x="30" width="150" height="30" as="geometry">
            <mxRectangle width="150" height="30" as="alternateBounds" />
          </mxGeometry>
        </mxCell>
        <mxCell id="q8Lr4Dt9qT4vP38lxmHz-153" value="" style="shape=tableRow;horizontal=0;startSize=0;swimlaneHead=0;swimlaneBody=0;fillColor=none;collapsible=0;dropTarget=0;points=[[0,0.5],[1,0.5]];portConstraint=eastwest;top=0;left=0;right=0;bottom=0;" vertex="1" parent="q8Lr4Dt9qT4vP38lxmHz-143">
          <mxGeometry y="120" width="180" height="30" as="geometry" />
        </mxCell>
        <mxCell id="q8Lr4Dt9qT4vP38lxmHz-154" value="" style="shape=partialRectangle;connectable=0;fillColor=none;top=0;left=0;bottom=0;right=0;editable=1;overflow=hidden;whiteSpace=wrap;html=1;" vertex="1" parent="q8Lr4Dt9qT4vP38lxmHz-153">
          <mxGeometry width="30" height="30" as="geometry">
            <mxRectangle width="30" height="30" as="alternateBounds" />
          </mxGeometry>
        </mxCell>
        <mxCell id="q8Lr4Dt9qT4vP38lxmHz-155" value="motivo" style="shape=partialRectangle;connectable=0;fillColor=none;top=0;left=0;bottom=0;right=0;align=left;spacingLeft=6;overflow=hidden;whiteSpace=wrap;html=1;" vertex="1" parent="q8Lr4Dt9qT4vP38lxmHz-153">
          <mxGeometry x="30" width="150" height="30" as="geometry">
            <mxRectangle width="150" height="30" as="alternateBounds" />
          </mxGeometry>
        </mxCell>
        <mxCell id="q8Lr4Dt9qT4vP38lxmHz-156" value="" style="shape=tableRow;horizontal=0;startSize=0;swimlaneHead=0;swimlaneBody=0;fillColor=none;collapsible=0;dropTarget=0;points=[[0,0.5],[1,0.5]];portConstraint=eastwest;top=0;left=0;right=0;bottom=0;" vertex="1" parent="q8Lr4Dt9qT4vP38lxmHz-143">
          <mxGeometry y="150" width="180" height="30" as="geometry" />
        </mxCell>
        <mxCell id="q8Lr4Dt9qT4vP38lxmHz-157" value="" style="shape=partialRectangle;connectable=0;fillColor=none;top=0;left=0;bottom=0;right=0;editable=1;overflow=hidden;whiteSpace=wrap;html=1;" vertex="1" parent="q8Lr4Dt9qT4vP38lxmHz-156">
          <mxGeometry width="30" height="30" as="geometry">
            <mxRectangle width="30" height="30" as="alternateBounds" />
          </mxGeometry>
        </mxCell>
        <mxCell id="q8Lr4Dt9qT4vP38lxmHz-158" value="estado" style="shape=partialRectangle;connectable=0;fillColor=none;top=0;left=0;bottom=0;right=0;align=left;spacingLeft=6;overflow=hidden;whiteSpace=wrap;html=1;" vertex="1" parent="q8Lr4Dt9qT4vP38lxmHz-156">
          <mxGeometry x="30" width="150" height="30" as="geometry">
            <mxRectangle width="150" height="30" as="alternateBounds" />
          </mxGeometry>
        </mxCell>
        <mxCell id="q8Lr4Dt9qT4vP38lxmHz-159" value="" style="shape=tableRow;horizontal=0;startSize=0;swimlaneHead=0;swimlaneBody=0;fillColor=none;collapsible=0;dropTarget=0;points=[[0,0.5],[1,0.5]];portConstraint=eastwest;top=0;left=0;right=0;bottom=0;" vertex="1" parent="q8Lr4Dt9qT4vP38lxmHz-143">
          <mxGeometry y="180" width="180" height="30" as="geometry" />
        </mxCell>
        <mxCell id="q8Lr4Dt9qT4vP38lxmHz-160" value="" style="shape=partialRectangle;connectable=0;fillColor=none;top=0;left=0;bottom=0;right=0;editable=1;overflow=hidden;whiteSpace=wrap;html=1;" vertex="1" parent="q8Lr4Dt9qT4vP38lxmHz-159">
          <mxGeometry width="30" height="30" as="geometry">
            <mxRectangle width="30" height="30" as="alternateBounds" />
          </mxGeometry>
        </mxCell>
        <mxCell id="q8Lr4Dt9qT4vP38lxmHz-161" value="data_criacao" style="shape=partialRectangle;connectable=0;fillColor=none;top=0;left=0;bottom=0;right=0;align=left;spacingLeft=6;overflow=hidden;whiteSpace=wrap;html=1;" vertex="1" parent="q8Lr4Dt9qT4vP38lxmHz-159">
          <mxGeometry x="30" width="150" height="30" as="geometry">
            <mxRectangle width="150" height="30" as="alternateBounds" />
          </mxGeometry>
        </mxCell>
        <mxCell id="q8Lr4Dt9qT4vP38lxmHz-165" value="Comentario" style="shape=table;startSize=30;container=1;collapsible=1;childLayout=tableLayout;fixedRows=1;rowLines=0;fontStyle=1;align=center;resizeLast=1;html=1;" vertex="1" parent="1">
          <mxGeometry x="585" y="431" width="180" height="210" as="geometry" />
        </mxCell>
        <mxCell id="q8Lr4Dt9qT4vP38lxmHz-166" value="" style="shape=tableRow;horizontal=0;startSize=0;swimlaneHead=0;swimlaneBody=0;fillColor=none;collapsible=0;dropTarget=0;points=[[0,0.5],[1,0.5]];portConstraint=eastwest;top=0;left=0;right=0;bottom=1;" vertex="1" parent="q8Lr4Dt9qT4vP38lxmHz-165">
          <mxGeometry y="30" width="180" height="30" as="geometry" />
        </mxCell>
        <mxCell id="q8Lr4Dt9qT4vP38lxmHz-167" value="PK" style="shape=partialRectangle;connectable=0;fillColor=none;top=0;left=0;bottom=0;right=0;fontStyle=1;overflow=hidden;whiteSpace=wrap;html=1;" vertex="1" parent="q8Lr4Dt9qT4vP38lxmHz-166">
          <mxGeometry width="57.54998779296875" height="30" as="geometry">
            <mxRectangle width="57.54998779296875" height="30" as="alternateBounds" />
          </mxGeometry>
        </mxCell>
        <mxCell id="q8Lr4Dt9qT4vP38lxmHz-168" value="id" style="shape=partialRectangle;connectable=0;fillColor=none;top=0;left=0;bottom=0;right=0;align=left;spacingLeft=6;fontStyle=5;overflow=hidden;whiteSpace=wrap;html=1;" vertex="1" parent="q8Lr4Dt9qT4vP38lxmHz-166">
          <mxGeometry x="57.54998779296875" width="122.45001220703125" height="30" as="geometry">
            <mxRectangle width="122.45001220703125" height="30" as="alternateBounds" />
          </mxGeometry>
        </mxCell>
        <mxCell id="q8Lr4Dt9qT4vP38lxmHz-169" value="" style="shape=tableRow;horizontal=0;startSize=0;swimlaneHead=0;swimlaneBody=0;fillColor=none;collapsible=0;dropTarget=0;points=[[0,0.5],[1,0.5]];portConstraint=eastwest;top=0;left=0;right=0;bottom=0;" vertex="1" parent="q8Lr4Dt9qT4vP38lxmHz-165">
          <mxGeometry y="60" width="180" height="30" as="geometry" />
        </mxCell>
        <mxCell id="q8Lr4Dt9qT4vP38lxmHz-170" value="FK" style="shape=partialRectangle;connectable=0;fillColor=none;top=0;left=0;bottom=0;right=0;editable=1;overflow=hidden;whiteSpace=wrap;html=1;" vertex="1" parent="q8Lr4Dt9qT4vP38lxmHz-169">
          <mxGeometry width="57.54998779296875" height="30" as="geometry">
            <mxRectangle width="57.54998779296875" height="30" as="alternateBounds" />
          </mxGeometry>
        </mxCell>
        <mxCell id="q8Lr4Dt9qT4vP38lxmHz-171" value="id_utilizador" style="shape=partialRectangle;connectable=0;fillColor=none;top=0;left=0;bottom=0;right=0;align=left;spacingLeft=6;overflow=hidden;whiteSpace=wrap;html=1;" vertex="1" parent="q8Lr4Dt9qT4vP38lxmHz-169">
          <mxGeometry x="57.54998779296875" width="122.45001220703125" height="30" as="geometry">
            <mxRectangle width="122.45001220703125" height="30" as="alternateBounds" />
          </mxGeometry>
        </mxCell>
        <mxCell id="q8Lr4Dt9qT4vP38lxmHz-172" value="" style="shape=tableRow;horizontal=0;startSize=0;swimlaneHead=0;swimlaneBody=0;fillColor=none;collapsible=0;dropTarget=0;points=[[0,0.5],[1,0.5]];portConstraint=eastwest;top=0;left=0;right=0;bottom=0;" vertex="1" parent="q8Lr4Dt9qT4vP38lxmHz-165">
          <mxGeometry y="90" width="180" height="30" as="geometry" />
        </mxCell>
        <mxCell id="q8Lr4Dt9qT4vP38lxmHz-173" value="FK" style="shape=partialRectangle;connectable=0;fillColor=none;top=0;left=0;bottom=0;right=0;editable=1;overflow=hidden;whiteSpace=wrap;html=1;" vertex="1" parent="q8Lr4Dt9qT4vP38lxmHz-172">
          <mxGeometry width="57.54998779296875" height="30" as="geometry">
            <mxRectangle width="57.54998779296875" height="30" as="alternateBounds" />
          </mxGeometry>
        </mxCell>
        <mxCell id="q8Lr4Dt9qT4vP38lxmHz-174" value="id_material" style="shape=partialRectangle;connectable=0;fillColor=none;top=0;left=0;bottom=0;right=0;align=left;spacingLeft=6;overflow=hidden;whiteSpace=wrap;html=1;" vertex="1" parent="q8Lr4Dt9qT4vP38lxmHz-172">
          <mxGeometry x="57.54998779296875" width="122.45001220703125" height="30" as="geometry">
            <mxRectangle width="122.45001220703125" height="30" as="alternateBounds" />
          </mxGeometry>
        </mxCell>
        <mxCell id="q8Lr4Dt9qT4vP38lxmHz-175" value="" style="shape=tableRow;horizontal=0;startSize=0;swimlaneHead=0;swimlaneBody=0;fillColor=none;collapsible=0;dropTarget=0;points=[[0,0.5],[1,0.5]];portConstraint=eastwest;top=0;left=0;right=0;bottom=0;" vertex="1" parent="q8Lr4Dt9qT4vP38lxmHz-165">
          <mxGeometry y="120" width="180" height="30" as="geometry" />
        </mxCell>
        <mxCell id="q8Lr4Dt9qT4vP38lxmHz-176" value="FK - NULL" style="shape=partialRectangle;connectable=0;fillColor=none;top=0;left=0;bottom=0;right=0;editable=1;overflow=hidden;whiteSpace=wrap;html=1;" vertex="1" parent="q8Lr4Dt9qT4vP38lxmHz-175">
          <mxGeometry width="57.54998779296875" height="30" as="geometry">
            <mxRectangle width="57.54998779296875" height="30" as="alternateBounds" />
          </mxGeometry>
        </mxCell>
        <mxCell id="q8Lr4Dt9qT4vP38lxmHz-177" value="id_resposta" style="shape=partialRectangle;connectable=0;fillColor=none;top=0;left=0;bottom=0;right=0;align=left;spacingLeft=6;overflow=hidden;whiteSpace=wrap;html=1;" vertex="1" parent="q8Lr4Dt9qT4vP38lxmHz-175">
          <mxGeometry x="57.54998779296875" width="122.45001220703125" height="30" as="geometry">
            <mxRectangle width="122.45001220703125" height="30" as="alternateBounds" />
          </mxGeometry>
        </mxCell>
        <mxCell id="q8Lr4Dt9qT4vP38lxmHz-178" value="" style="shape=tableRow;horizontal=0;startSize=0;swimlaneHead=0;swimlaneBody=0;fillColor=none;collapsible=0;dropTarget=0;points=[[0,0.5],[1,0.5]];portConstraint=eastwest;top=0;left=0;right=0;bottom=0;" vertex="1" parent="q8Lr4Dt9qT4vP38lxmHz-165">
          <mxGeometry y="150" width="180" height="30" as="geometry" />
        </mxCell>
        <mxCell id="q8Lr4Dt9qT4vP38lxmHz-179" value="" style="shape=partialRectangle;connectable=0;fillColor=none;top=0;left=0;bottom=0;right=0;editable=1;overflow=hidden;whiteSpace=wrap;html=1;" vertex="1" parent="q8Lr4Dt9qT4vP38lxmHz-178">
          <mxGeometry width="57.54998779296875" height="30" as="geometry">
            <mxRectangle width="57.54998779296875" height="30" as="alternateBounds" />
          </mxGeometry>
        </mxCell>
        <mxCell id="q8Lr4Dt9qT4vP38lxmHz-180" value="conteudo" style="shape=partialRectangle;connectable=0;fillColor=none;top=0;left=0;bottom=0;right=0;align=left;spacingLeft=6;overflow=hidden;whiteSpace=wrap;html=1;" vertex="1" parent="q8Lr4Dt9qT4vP38lxmHz-178">
          <mxGeometry x="57.54998779296875" width="122.45001220703125" height="30" as="geometry">
            <mxRectangle width="122.45001220703125" height="30" as="alternateBounds" />
          </mxGeometry>
        </mxCell>
        <mxCell id="q8Lr4Dt9qT4vP38lxmHz-181" value="" style="shape=tableRow;horizontal=0;startSize=0;swimlaneHead=0;swimlaneBody=0;fillColor=none;collapsible=0;dropTarget=0;points=[[0,0.5],[1,0.5]];portConstraint=eastwest;top=0;left=0;right=0;bottom=0;" vertex="1" parent="q8Lr4Dt9qT4vP38lxmHz-165">
          <mxGeometry y="180" width="180" height="30" as="geometry" />
        </mxCell>
        <mxCell id="q8Lr4Dt9qT4vP38lxmHz-182" value="" style="shape=partialRectangle;connectable=0;fillColor=none;top=0;left=0;bottom=0;right=0;editable=1;overflow=hidden;whiteSpace=wrap;html=1;" vertex="1" parent="q8Lr4Dt9qT4vP38lxmHz-181">
          <mxGeometry width="57.54998779296875" height="30" as="geometry">
            <mxRectangle width="57.54998779296875" height="30" as="alternateBounds" />
          </mxGeometry>
        </mxCell>
        <mxCell id="q8Lr4Dt9qT4vP38lxmHz-183" value="data_criacao" style="shape=partialRectangle;connectable=0;fillColor=none;top=0;left=0;bottom=0;right=0;align=left;spacingLeft=6;overflow=hidden;whiteSpace=wrap;html=1;" vertex="1" parent="q8Lr4Dt9qT4vP38lxmHz-181">
          <mxGeometry x="57.54998779296875" width="122.45001220703125" height="30" as="geometry">
            <mxRectangle width="122.45001220703125" height="30" as="alternateBounds" />
          </mxGeometry>
        </mxCell>
        <mxCell id="q8Lr4Dt9qT4vP38lxmHz-203" value="Users" style="whiteSpace=wrap;html=1;align=center;" vertex="1" parent="1">
          <mxGeometry x="388" y="-593" width="100" height="40" as="geometry" />
        </mxCell>
        <mxCell id="q8Lr4Dt9qT4vP38lxmHz-204" value="Materials" style="whiteSpace=wrap;html=1;align=center;" vertex="1" parent="1">
          <mxGeometry x="218" y="-593" width="100" height="40" as="geometry" />
        </mxCell>
        <mxCell id="q8Lr4Dt9qT4vP38lxmHz-205" value="Favourites" style="whiteSpace=wrap;html=1;align=center;" vertex="1" parent="1">
          <mxGeometry x="218" y="-719" width="100" height="40" as="geometry" />
        </mxCell>
        <mxCell id="q8Lr4Dt9qT4vP38lxmHz-206" value="Ratings" style="whiteSpace=wrap;html=1;align=center;" vertex="1" parent="1">
          <mxGeometry x="171" y="-785" width="100" height="40" as="geometry" />
        </mxCell>
        <mxCell id="q8Lr4Dt9qT4vP38lxmHz-207" value="Groups" style="whiteSpace=wrap;html=1;align=center;" vertex="1" parent="1">
          <mxGeometry x="582" y="-766" width="100" height="40" as="geometry" />
        </mxCell>
        <mxCell id="q8Lr4Dt9qT4vP38lxmHz-208" value="Reports" style="whiteSpace=wrap;html=1;align=center;" vertex="1" parent="1">
          <mxGeometry x="243" y="-391" width="100" height="40" as="geometry" />
        </mxCell>
        <mxCell id="q8Lr4Dt9qT4vP38lxmHz-209" value="Comments" style="whiteSpace=wrap;html=1;align=center;" vertex="1" parent="1">
          <mxGeometry x="171" y="-321" width="100" height="40" as="geometry" />
        </mxCell>
        <mxCell id="q8Lr4Dt9qT4vP38lxmHz-210" value="Tags" style="whiteSpace=wrap;html=1;align=center;" vertex="1" parent="1">
          <mxGeometry x="79" y="-488" width="100" height="40" as="geometry" />
        </mxCell>
        <mxCell id="q8Lr4Dt9qT4vP38lxmHz-211" value="Study_Sessions" style="whiteSpace=wrap;html=1;align=center;" vertex="1" parent="1">
          <mxGeometry x="507" y="-434" width="100" height="40" as="geometry" />
        </mxCell>
        <mxCell id="q8Lr4Dt9qT4vP38lxmHz-212" value="Sessions_&lt;br&gt;Participants" style="whiteSpace=wrap;html=1;align=center;" vertex="1" parent="1">
          <mxGeometry x="628" y="-516" width="103.5" height="38" as="geometry" />
        </mxCell>
        <mxCell id="q8Lr4Dt9qT4vP38lxmHz-213" value="" style="edgeStyle=entityRelationEdgeStyle;fontSize=12;html=1;endArrow=ERzeroToMany;startArrow=ERmandOne;rounded=0;entryX=1;entryY=0.5;entryDx=0;entryDy=0;exitX=0;exitY=0.5;exitDx=0;exitDy=0;" edge="1" parent="1" source="q8Lr4Dt9qT4vP38lxmHz-203" target="q8Lr4Dt9qT4vP38lxmHz-204">
          <mxGeometry width="100" height="100" relative="1" as="geometry">
            <mxPoint x="290" y="-525" as="sourcePoint" />
            <mxPoint x="390" y="-625" as="targetPoint" />
          </mxGeometry>
        </mxCell>
        <mxCell id="q8Lr4Dt9qT4vP38lxmHz-214" value="" style="edgeStyle=orthogonalEdgeStyle;fontSize=12;html=1;endArrow=ERzeroToMany;startArrow=ERmandOne;rounded=0;entryX=0.5;entryY=0;entryDx=0;entryDy=0;exitX=0.5;exitY=1;exitDx=0;exitDy=0;" edge="1" parent="1" source="q8Lr4Dt9qT4vP38lxmHz-204" target="q8Lr4Dt9qT4vP38lxmHz-209">
          <mxGeometry width="100" height="100" relative="1" as="geometry">
            <mxPoint x="412" y="-662" as="sourcePoint" />
            <mxPoint x="284" y="-502" as="targetPoint" />
          </mxGeometry>
        </mxCell>
        <mxCell id="q8Lr4Dt9qT4vP38lxmHz-216" value="" style="fontSize=12;html=1;endArrow=ERoneToMany;startArrow=ERoneToMany;rounded=0;entryX=0.25;entryY=1;entryDx=0;entryDy=0;exitX=0.5;exitY=0;exitDx=0;exitDy=0;edgeStyle=elbowEdgeStyle;elbow=vertical;" edge="1" parent="1" source="q8Lr4Dt9qT4vP38lxmHz-210" target="q8Lr4Dt9qT4vP38lxmHz-204">
          <mxGeometry width="100" height="100" relative="1" as="geometry">
            <mxPoint x="118" y="-469" as="sourcePoint" />
            <mxPoint x="218" y="-569" as="targetPoint" />
          </mxGeometry>
        </mxCell>
        <mxCell id="q8Lr4Dt9qT4vP38lxmHz-217" value="" style="edgeStyle=orthogonalEdgeStyle;fontSize=12;html=1;endArrow=ERzeroToMany;startArrow=ERmandOne;rounded=0;entryX=0.5;entryY=0;entryDx=0;entryDy=0;exitX=0.75;exitY=1;exitDx=0;exitDy=0;" edge="1" parent="1" source="q8Lr4Dt9qT4vP38lxmHz-204" target="q8Lr4Dt9qT4vP38lxmHz-208">
          <mxGeometry width="100" height="100" relative="1" as="geometry">
            <mxPoint x="278" y="-543" as="sourcePoint" />
            <mxPoint x="208" y="-436" as="targetPoint" />
          </mxGeometry>
        </mxCell>
        <mxCell id="q8Lr4Dt9qT4vP38lxmHz-219" value="Group_Members" style="whiteSpace=wrap;html=1;align=center;" vertex="1" parent="1">
          <mxGeometry x="582" y="-667" width="100" height="40" as="geometry" />
        </mxCell>
        <mxCell id="q8Lr4Dt9qT4vP38lxmHz-220" value="" style="edgeStyle=orthogonalEdgeStyle;fontSize=12;html=1;endArrow=ERzeroToMany;startArrow=ERmandOne;rounded=0;entryX=0;entryY=0.5;entryDx=0;entryDy=0;exitX=0.25;exitY=0;exitDx=0;exitDy=0;" edge="1" parent="1" source="q8Lr4Dt9qT4vP38lxmHz-204" target="q8Lr4Dt9qT4vP38lxmHz-206">
          <mxGeometry width="100" height="100" relative="1" as="geometry">
            <mxPoint x="278" y="-543" as="sourcePoint" />
            <mxPoint x="224" y="-362" as="targetPoint" />
            <Array as="points">
              <mxPoint x="243" y="-637" />
              <mxPoint x="94" y="-637" />
              <mxPoint x="94" y="-765" />
            </Array>
          </mxGeometry>
        </mxCell>
        <mxCell id="q8Lr4Dt9qT4vP38lxmHz-221" value="" style="fontSize=12;html=1;endArrow=ERzeroToMany;startArrow=ERmandOne;rounded=0;entryX=1;entryY=0.5;entryDx=0;entryDy=0;exitX=0.25;exitY=0;exitDx=0;exitDy=0;edgeStyle=orthogonalEdgeStyle;" edge="1" parent="1" source="q8Lr4Dt9qT4vP38lxmHz-203" target="q8Lr4Dt9qT4vP38lxmHz-205">
          <mxGeometry width="100" height="100" relative="1" as="geometry">
            <mxPoint x="412" y="-662" as="sourcePoint" />
            <mxPoint x="328" y="-563" as="targetPoint" />
          </mxGeometry>
        </mxCell>
        <mxCell id="q8Lr4Dt9qT4vP38lxmHz-222" value="" style="fontSize=12;html=1;endArrow=ERzeroToMany;startArrow=ERmandOne;rounded=0;entryX=0.5;entryY=1;entryDx=0;entryDy=0;exitX=0.5;exitY=0;exitDx=0;exitDy=0;" edge="1" parent="1" source="q8Lr4Dt9qT4vP38lxmHz-204" target="q8Lr4Dt9qT4vP38lxmHz-205">
          <mxGeometry width="100" height="100" relative="1" as="geometry">
            <mxPoint x="458" y="-642" as="sourcePoint" />
            <mxPoint x="457" y="-505" as="targetPoint" />
          </mxGeometry>
        </mxCell>
        <mxCell id="q8Lr4Dt9qT4vP38lxmHz-224" value="" style="edgeStyle=orthogonalEdgeStyle;fontSize=12;html=1;endArrow=ERzeroToMany;startArrow=ERmandOne;rounded=0;entryX=0.75;entryY=0;entryDx=0;entryDy=0;exitX=0.25;exitY=1;exitDx=0;exitDy=0;" edge="1" parent="1" source="q8Lr4Dt9qT4vP38lxmHz-203" target="q8Lr4Dt9qT4vP38lxmHz-208">
          <mxGeometry width="100" height="100" relative="1" as="geometry">
            <mxPoint x="303" y="-543" as="sourcePoint" />
            <mxPoint x="405" y="-365" as="targetPoint" />
          </mxGeometry>
        </mxCell>
        <mxCell id="q8Lr4Dt9qT4vP38lxmHz-225" value="" style="edgeStyle=orthogonalEdgeStyle;fontSize=12;html=1;endArrow=ERzeroToMany;startArrow=ERmandOne;rounded=0;entryX=1;entryY=0.5;entryDx=0;entryDy=0;exitX=0.5;exitY=1;exitDx=0;exitDy=0;" edge="1" parent="1" source="q8Lr4Dt9qT4vP38lxmHz-203" target="q8Lr4Dt9qT4vP38lxmHz-209">
          <mxGeometry width="100" height="100" relative="1" as="geometry">
            <mxPoint x="448" y="-543" as="sourcePoint" />
            <mxPoint x="430" y="-365" as="targetPoint" />
          </mxGeometry>
        </mxCell>
        <mxCell id="q8Lr4Dt9qT4vP38lxmHz-227" value="" style="fontSize=12;html=1;endArrow=ERzeroToMany;startArrow=ERmandOne;rounded=0;entryX=1;entryY=0.5;entryDx=0;entryDy=0;exitX=0.5;exitY=0;exitDx=0;exitDy=0;edgeStyle=orthogonalEdgeStyle;" edge="1" parent="1" source="q8Lr4Dt9qT4vP38lxmHz-203" target="q8Lr4Dt9qT4vP38lxmHz-206">
          <mxGeometry width="100" height="100" relative="1" as="geometry">
            <mxPoint x="423" y="-583" as="sourcePoint" />
            <mxPoint x="328" y="-689" as="targetPoint" />
          </mxGeometry>
        </mxCell>
        <mxCell id="q8Lr4Dt9qT4vP38lxmHz-228" value="" style="fontSize=12;html=1;endArrow=ERoneToMany;startArrow=ERmandOne;rounded=0;exitX=0.5;exitY=1;exitDx=0;exitDy=0;entryX=0.5;entryY=0;entryDx=0;entryDy=0;" edge="1" parent="1" source="q8Lr4Dt9qT4vP38lxmHz-207" target="q8Lr4Dt9qT4vP38lxmHz-219">
          <mxGeometry width="100" height="100" relative="1" as="geometry">
            <mxPoint x="561" y="-591" as="sourcePoint" />
            <mxPoint x="661" y="-691" as="targetPoint" />
          </mxGeometry>
        </mxCell>
        <mxCell id="q8Lr4Dt9qT4vP38lxmHz-229" value="" style="fontSize=12;html=1;endArrow=ERoneToMany;startArrow=ERmandOne;rounded=0;exitX=1;exitY=0.25;exitDx=0;exitDy=0;entryX=0;entryY=0.5;entryDx=0;entryDy=0;edgeStyle=orthogonalEdgeStyle;" edge="1" parent="1" source="q8Lr4Dt9qT4vP38lxmHz-203" target="q8Lr4Dt9qT4vP38lxmHz-219">
          <mxGeometry width="100" height="100" relative="1" as="geometry">
            <mxPoint x="642" y="-716" as="sourcePoint" />
            <mxPoint x="642" y="-657" as="targetPoint" />
          </mxGeometry>
        </mxCell>
        <mxCell id="q8Lr4Dt9qT4vP38lxmHz-230" value="" style="edgeStyle=orthogonalEdgeStyle;fontSize=12;html=1;endArrow=ERzeroToMany;startArrow=ERmandOne;rounded=0;entryX=0;entryY=0.5;entryDx=0;entryDy=0;exitX=0.75;exitY=1;exitDx=0;exitDy=0;" edge="1" parent="1" source="q8Lr4Dt9qT4vP38lxmHz-203" target="q8Lr4Dt9qT4vP38lxmHz-211">
          <mxGeometry width="100" height="100" relative="1" as="geometry">
            <mxPoint x="448" y="-543" as="sourcePoint" />
            <mxPoint x="281" y="-291" as="targetPoint" />
          </mxGeometry>
        </mxCell>
        <mxCell id="q8Lr4Dt9qT4vP38lxmHz-233" value="" style="edgeStyle=orthogonalEdgeStyle;fontSize=12;html=1;endArrow=ERzeroToMany;startArrow=ERmandOne;rounded=0;entryX=0;entryY=0.5;entryDx=0;entryDy=0;exitX=0.75;exitY=0;exitDx=0;exitDy=0;" edge="1" parent="1" source="q8Lr4Dt9qT4vP38lxmHz-203" target="q8Lr4Dt9qT4vP38lxmHz-207">
          <mxGeometry width="100" height="100" relative="1" as="geometry">
            <mxPoint x="461" y="-613" as="sourcePoint" />
            <mxPoint x="561" y="-713" as="targetPoint" />
          </mxGeometry>
        </mxCell>
        <mxCell id="q8Lr4Dt9qT4vP38lxmHz-234" value="" style="fontSize=12;html=1;endArrow=ERoneToMany;startArrow=ERmandOne;rounded=0;exitX=1;exitY=0.5;exitDx=0;exitDy=0;entryX=0.5;entryY=1;entryDx=0;entryDy=0;edgeStyle=orthogonalEdgeStyle;" edge="1" parent="1" source="q8Lr4Dt9qT4vP38lxmHz-211" target="q8Lr4Dt9qT4vP38lxmHz-212">
          <mxGeometry width="100" height="100" relative="1" as="geometry">
            <mxPoint x="655.55" y="-443.5" as="sourcePoint" />
            <mxPoint x="655.55" y="-384.5" as="targetPoint" />
          </mxGeometry>
        </mxCell>
        <mxCell id="q8Lr4Dt9qT4vP38lxmHz-235" value="" style="fontSize=12;html=1;endArrow=ERoneToMany;startArrow=ERmandOne;rounded=0;exitX=1;exitY=0.75;exitDx=0;exitDy=0;entryX=0;entryY=0.5;entryDx=0;entryDy=0;edgeStyle=orthogonalEdgeStyle;" edge="1" parent="1" source="q8Lr4Dt9qT4vP38lxmHz-203" target="q8Lr4Dt9qT4vP38lxmHz-212">
          <mxGeometry width="100" height="100" relative="1" as="geometry">
            <mxPoint x="498" y="-573" as="sourcePoint" />
            <mxPoint x="592" y="-637" as="targetPoint" />
            <Array as="points">
              <mxPoint x="537" y="-563" />
              <mxPoint x="537" y="-497" />
            </Array>
          </mxGeometry>
        </mxCell>
      </root>
    </mxGraphModel>
  </diagram>
</mxfile>
